<svg width="96" height="96" xmlns="http://www.w3.org/2000/svg" xmlns:xlink="http://www.w3.org/1999/xlink" xml:space="preserve" overflow="hidden"><g transform="translate(-890 -1454)"><path d="M979.078 1517.65C979.885 1514.33 980.889 1510.2 977.841 1503.49 977.213 1502.13 975.841 1499.09 974.453 1496.01 973.188 1493.21 971.904 1490.36 971.147 1488.7 969.719 1485.48 965.948 1484.02 962.725 1485.45 962.699 1485.46 962.673 1485.47 962.647 1485.49 961.721 1485.87 960.905 1486.48 960.274 1487.26L960.241 1487.26C959.108 1485.63 957.261 1484.64 955.277 1484.61L955.277 1484.61C953.08 1484.52 950.991 1485.57 949.753 1487.39 947.463 1485.45 944.132 1485.37 941.753 1487.2 940.961 1487.77 940.339 1488.55 939.953 1489.45 939.951 1489.46 939.946 1489.46 939.942 1489.46 939.939 1489.46 939.937 1489.46 939.936 1489.45L932.748 1473.41C932.159 1472.05 931.071 1470.97 929.71 1470.4 928.347 1469.8 926.798 1469.8 925.433 1470.39 924.076 1470.98 922.998 1472.07 922.423 1473.43 921.844 1474.76 921.825 1476.26 922.37 1477.6 922.404 1477.72 922.458 1477.84 922.53 1477.94L939.318 1515.51 938.239 1515.75 926.4 1507.6C924.011 1505.88 920.708 1506.26 918.767 1508.47 916.756 1510.85 917.053 1514.4 919.43 1516.41 919.568 1516.53 919.713 1516.64 919.862 1516.75L938.919 1529.79C939.488 1530.17 940.127 1530.45 940.8 1530.6L952.365 1533.32 955.219 1539.54 957.041 1538.72 954.241 1532.52C954.207 1532.44 954.163 1532.37 954.11 1532.3L953.71 1531.8C953.57 1531.63 953.377 1531.51 953.159 1531.45L941.2 1528.64C940.771 1528.53 940.365 1528.35 940 1528.1L921 1515.09C920.157 1514.51 919.602 1513.6 919.473 1512.58 919.33 1511.56 919.633 1510.54 920.305 1509.76 921.59 1508.35 923.723 1508.13 925.27 1509.24L937.47 1517.64C937.699 1517.8 937.984 1517.86 938.256 1517.8L940.956 1517.19C941.496 1517.08 941.837 1516.54 941.72 1516 941.705 1515.94 941.684 1515.87 941.656 1515.81L924.387 1477.19C924.353 1477.08 924.301 1476.97 924.232 1476.87 923.542 1475.04 924.425 1472.98 926.232 1472.22 927.095 1471.85 928.073 1471.86 928.932 1472.24 929.823 1472.62 930.535 1473.33 930.923 1474.21L939.523 1493.42 939.523 1493.42C939.729 1493.96 940.331 1494.22 940.867 1494.02 941.28 1493.86 941.548 1493.45 941.533 1493.01 941.533 1492.94 941.527 1492.88 941.514 1492.81 941.187 1491.32 941.738 1489.77 942.934 1488.81 944.823 1487.33 947.552 1487.65 949.047 1489.53 949.071 1489.56 949.098 1489.59 949.127 1489.62 949.445 1489.96 949.943 1490.08 950.38 1489.91 950.635 1489.79 950.837 1489.58 950.945 1489.32L950.945 1489.32C951.677 1487.62 953.381 1486.54 955.234 1486.61 956.543 1486.63 957.766 1487.26 958.54 1488.32 958.567 1488.35 958.595 1488.39 958.626 1488.42 958.888 1488.69 959.086 1489.02 959.204 1489.38 959.255 1489.51 959.331 1489.63 959.429 1489.72 959.752 1490.06 960.246 1490.17 960.681 1490 960.922 1489.89 961.115 1489.7 961.226 1489.45L961.226 1489.45C961.677 1488.49 962.471 1487.73 963.452 1487.31 965.645 1486.29 968.254 1487.23 969.279 1489.43 969.294 1489.46 969.308 1489.49 969.322 1489.52 970.083 1491.19 971.365 1494.03 972.629 1496.83 974.023 1499.92 975.395 1502.97 976.022 1504.32 978.782 1510.4 977.907 1514 977.135 1517.17 976.546 1519.59 975.989 1521.88 977.226 1524.64L979.126 1528.74 980.941 1527.9 979.041 1523.81C978.1 1521.69 978.529 1519.9 979.078 1517.65Z"/><path d="M917.091 1477.75 918.712 1476.58 911.493 1466.6 901.518 1473.82 902.69 1475.44 909.881 1470.24C909.885 1470.24 909.89 1470.24 909.894 1470.24 909.896 1470.24 909.897 1470.24 909.896 1470.25L903.861 1507.89C903.859 1507.9 903.853 1507.9 903.848 1507.9 903.846 1507.9 903.844 1507.89 903.843 1507.89L898.643 1500.7 897.019 1501.88 904.238 1511.85 914.213 1504.64 913.041 1503.02 905.851 1508.21C905.847 1508.22 905.84 1508.22 905.837 1508.21 905.835 1508.21 905.835 1508.21 905.835 1508.21L911.871 1470.56C911.873 1470.56 911.879 1470.56 911.884 1470.56 911.886 1470.56 911.888 1470.56 911.889 1470.56Z"/></g></svg>