<svg width="96" height="96" xmlns="http://www.w3.org/2000/svg" xmlns:xlink="http://www.w3.org/1999/xlink" xml:space="preserve" overflow="hidden"><g transform="translate(-1392 -912)"><path d="M1465.5 934 1461.6 937.9C1474 950.3 1474 970.5 1461.6 982.9L1465.5 986.8C1480.1 972.3 1480.1 948.6 1465.5 934Z"/><path d="M1457.6 941.8 1453.7 945.7C1461.8 953.8 1461.8 966.9 1453.7 975.1L1457.6 979C1467.9 968.7 1467.9 952.1 1457.6 941.8Z"/><path d="M1449.9 949.8 1446 953.7C1449.8 957.5 1449.8 963.6 1446 967.4L1449.9 971.3C1455.9 965.3 1455.9 955.7 1449.9 949.8Z"/><path d="M1395.5 946.6 1395.5 973.4 1414.9 973.4 1440 994 1440 926 1414.9 946.6Z"/></g></svg>