<svg width="96" height="96" xmlns="http://www.w3.org/2000/svg" xmlns:xlink="http://www.w3.org/1999/xlink" xml:space="preserve" overflow="hidden"><g transform="translate(-1440 -901)"><path d="M1479.35 934 1492.08 934 1479.38 912C1467.62 914.749 1457.86 922.912 1453.09 934Z"/><path d="M1500.74 941 1500.71 941.013 1503.08 945.113 1515.8 923.1C1508.62 915.375 1498.55 910.99 1488.01 911 1486.52 911.003 1485.04 911.092 1483.57 911.266Z"/><path d="M1499.11 960 1524.38 960C1527.86 948.493 1525.69 936.02 1518.53 926.364Z"/><path d="M1496.67 964 1483.94 964 1496.64 986C1508.39 983.251 1518.15 975.088 1522.93 964Z"/><path d="M1475.27 957 1475.3 956.987 1472.91 952.859 1460.2 974.885C1467.38 982.619 1477.45 987.01 1488.01 987 1489.49 986.997 1490.97 986.908 1492.44 986.734Z"/><path d="M1476.87 938 1451.63 938C1448.16 949.497 1450.32 961.959 1457.47 971.612Z"/></g></svg>