<svg width="96" height="96" xmlns="http://www.w3.org/2000/svg" xmlns:xlink="http://www.w3.org/1999/xlink" xml:space="preserve" overflow="hidden"><g transform="translate(-1783 -1228)"><path d="M1855 1239 1861 1239 1861 1313 1855 1313Z"/><path d="M1800 1243 1800 1309C1800 1311.2 1801.8 1313 1804 1313L1851 1313 1851 1239 1804 1239C1801.8 1239 1800 1240.8 1800 1243ZM1826.3 1274.7C1822.1 1274.7 1818.7 1271.3 1818.7 1267.1 1818.7 1262.9 1822.1 1259.5 1826.3 1259.5 1830.5 1259.5 1833.9 1262.9 1833.9 1267.1 1833.9 1271.4 1830.5 1274.7 1826.3 1274.7ZM1811 1284.4C1811 1283.2 1811.6 1282 1812.5 1281.3 1814.8 1279.6 1817.3 1278.4 1820 1277.7 1822 1277 1824.2 1276.7 1826.3 1276.7 1828.4 1276.8 1830.5 1277.1 1832.6 1277.7 1835.3 1278.4 1837.8 1279.7 1840.1 1281.3 1841 1282.1 1841.6 1283.2 1841.6 1284.4L1841.6 1292 1811 1292 1811 1284.4Z"/></g></svg>