<svg width="96" height="96" xmlns="http://www.w3.org/2000/svg" xmlns:xlink="http://www.w3.org/1999/xlink" xml:space="preserve" overflow="hidden"><g transform="translate(-856 -609)"><path d="M886.5 645.79C879.596 645.79 874 651.386 874 658.29 874 665.194 879.596 670.79 886.5 670.79 893.404 670.79 899 665.194 899 658.29 899 651.386 893.404 645.79 886.5 645.79ZM886.5 650.63C888.438 650.625 890.015 652.192 890.02 654.13 890.026 656.068 888.458 657.644 886.52 657.65 884.581 657.656 883.005 656.089 883 654.15 883 654.147 883 654.143 883 654.14 883 652.205 884.565 650.635 886.5 650.63ZM893.5 664.7 879.5 664.7 879.5 662C879.513 661.452 879.77 660.939 880.2 660.6 881.24 659.88 882.392 659.339 883.61 659 884.55 658.73 885.522 658.586 886.5 658.57 887.479 658.573 888.453 658.718 889.39 659 890.63 659.322 891.793 659.89 892.81 660.67 893.24 661.009 893.497 661.522 893.51 662.07Z"/><path d="M912.9 642.52 900.66 649.86C901.349 651.018 901.9 652.253 902.3 653.54L914.91 646C914.066 644.949 913.389 643.776 912.9 642.52Z"/><path d="M934 637.79C934 642.761 929.971 646.79 925 646.79 920.029 646.79 916 642.761 916 637.79 916 632.819 920.029 628.79 925 628.79 929.971 628.79 934 632.819 934 637.79Z"/><path d="M914.91 670.6 902.3 663C901.9 664.287 901.349 665.522 900.66 666.68L912.9 674.06C913.391 672.812 914.069 671.645 914.91 670.6Z"/><path d="M934 678.79C934 683.761 929.971 687.79 925 687.79 920.029 687.79 916 683.761 916 678.79 916 673.819 920.029 669.79 925 669.79 929.971 669.79 934 673.819 934 678.79Z"/></g></svg>