<svg width="96" height="96" xmlns="http://www.w3.org/2000/svg" xmlns:xlink="http://www.w3.org/1999/xlink" xml:space="preserve" overflow="hidden"><g transform="translate(-617 -516)"><path d="M695 536 678 536 678 531C678 527.1 674.9 524 671 524L659 524C655.1 524 652 527.1 652 531L652 536 635 536C632.8 536 631 537.8 631 540L631 544 699 544 699 540C699 537.8 697.2 536 695 536ZM658 531C658 530.4 658.4 530 659 530L671 530C671.6 530 672 530.4 672 531L672 536 658 536 658 531Z"/><path d="M637 600C637 602.2 638.8 604 641 604L689 604C691.2 604 693 602.2 693 600L693 548 637 548 637 600ZM678 554 684 554 684 598 678 598 678 554ZM662 554 668 554 668 598 662 598 662 554ZM646 554 652 554 652 598 646 598 646 554Z"/></g></svg>