<svg width="96" height="96" xmlns="http://www.w3.org/2000/svg" xmlns:xlink="http://www.w3.org/1999/xlink" xml:space="preserve" overflow="hidden"><g transform="translate(-1269 -556)"><path d="M1347.55 578.841C1336.94 577.996 1327.05 573.156 1319.88 565.3 1318.52 563.732 1316.16 563.558 1314.59 564.911 1314.45 565.031 1314.32 565.161 1314.2 565.3 1307.02 573.156 1297.13 577.996 1286.53 578.841 1284.56 579.026 1283.05 580.688 1283.07 582.667L1283.07 592.32C1283.07 613.306 1296.42 632.503 1314.95 644.382 1316.22 645.2 1317.85 645.2 1319.13 644.382 1337.66 632.5 1351.01 613.306 1351.01 592.32L1351.01 582.667C1351.02 580.688 1349.52 579.026 1347.55 578.841ZM1344.51 592.32C1344.51 609.02 1334.56 625.867 1317.89 637.396L1317.04 637.987 1316.18 637.396C1299.52 625.866 1289.57 609.015 1289.57 592.32L1289.57 585.069 1290.83 584.869C1300.25 583.38 1309.01 579.135 1316.02 572.669L1317.04 571.733 1318.05 572.669C1325.06 579.135 1333.82 583.38 1343.24 584.869L1344.51 585.069Z"/><path d="M1317.04 575.788C1310.09 581.86 1301.64 585.945 1292.57 587.612L1292.57 592.32C1292.57 607.747 1301.69 623.383 1317.04 634.33 1332.38 623.385 1341.51 607.748 1341.51 592.32L1341.51 587.612C1332.43 585.945 1323.98 581.86 1317.04 575.788ZM1314.47 614.833 1304.36 604.72 1307.79 601.284 1314.47 607.96 1328.14 594.288 1331.58 597.725Z"/></g></svg>