<svg width="96" height="96" xmlns="http://www.w3.org/2000/svg" xmlns:xlink="http://www.w3.org/1999/xlink" xml:space="preserve" overflow="hidden"><g transform="translate(-1112 -384)"><path d="M1128.22 445.925C1125.16 444.801 1122.65 442.513 1121.26 439.556 1119.38 435.376 1119.87 430.514 1122.53 426.786 1125.24 423.107 1129.77 421.239 1134.29 421.936L1137.84 422.526 1137.84 418.656C1137.87 411.573 1142.69 405.405 1149.55 403.656 1156.44 401.996 1163.55 405.315 1166.71 411.656L1167.92 414.066 1170.43 413.176C1174.19 411.851 1178.35 412.433 1181.6 414.736 1184.83 417.101 1186.74 420.862 1186.75 424.866L1186.75 427.986 1190.83 427.986C1196.01 428.181 1200.06 432.539 1199.86 437.722 1199.68 442.669 1195.68 446.623 1190.73 446.756L1185.48 446.756 1172.52 446.734 1172.52 452.966 1180.17 452.986 1190.73 452.986C1199.37 452.782 1206.2 445.616 1206 436.98 1205.82 429.362 1200.17 422.982 1192.63 421.876 1191.83 416.986 1189.15 412.604 1185.15 409.676 1181.01 406.747 1175.85 405.661 1170.88 406.676 1165.99 399.132 1156.88 395.489 1148.14 397.586 1139.6 399.763 1133.21 406.865 1131.95 415.586 1126.29 415.758 1121.02 418.501 1117.64 423.036 1113.62 428.622 1112.89 435.928 1115.72 442.2 1118.6 448.383 1124.65 452.484 1131.46 452.88L1138.8 452.88 1146.52 452.901 1146.52 446.689 1133.52 446.666 1131.72 446.666C1130.58 446.594 1129.46 446.365 1128.39 445.986Z"/><path d="M1167.52 464.986 1167.52 440.986 1180.02 440.986 1159.52 416.986 1139.02 440.986 1151.52 440.986 1151.52 464.986 1167.52 464.986Z"/></g></svg>