<svg width="96" height="96" xmlns="http://www.w3.org/2000/svg" xmlns:xlink="http://www.w3.org/1999/xlink" xml:space="preserve" overflow="hidden"><g transform="translate(-1392 -912)"><path d="M1458 992 1422 992 1422 928 1458 928 1458 992ZM1436 920 1444 920C1445.1 920 1446 920.9 1446 922 1446 923.1 1445.1 924 1444 924L1436 924C1434.9 924 1434 923.1 1434 922 1434 920.9 1434.9 920 1436 920ZM1462 916 1418 916C1416.9 916 1416 916.9 1416 918L1416 1002C1416 1003.1 1416.9 1004 1418 1004L1462 1004C1463.1 1004 1464 1003.1 1464 1002L1464 918C1464 916.9 1463.1 916 1462 916Z"/></g></svg>