<svg width="96" height="96" xmlns="http://www.w3.org/2000/svg" xmlns:xlink="http://www.w3.org/1999/xlink" xml:space="preserve" overflow="hidden"><g transform="translate(-1263 -1674)"><path d="M1345 1716 1277 1716 1277 1700 1345 1700 1345 1716ZM1345 1744 1277 1744 1277 1728 1345 1728 1345 1744ZM1347 1694 1275 1694C1272.8 1694 1271 1695.8 1271 1698L1271 1746C1271 1748.2 1272.8 1750 1275 1750L1347 1750C1349.2 1750 1351 1748.2 1351 1746L1351 1698C1351 1695.8 1349.2 1694 1347 1694Z"/><path d="M1283 1734 1299 1734 1299 1738 1283 1738Z"/><path d="M1303 1734 1311 1734 1311 1738 1303 1738Z"/></g></svg>