<svg width="96" height="96" xmlns="http://www.w3.org/2000/svg" xmlns:xlink="http://www.w3.org/1999/xlink" xml:space="preserve" overflow="hidden"><g transform="translate(-1453 -1435)"><path d="M1501 1451C1508.73 1451 1515 1457.27 1515 1465 1515 1472.73 1508.73 1479 1501 1479 1493.27 1479 1487 1472.73 1487 1465 1487.01 1457.27 1493.27 1451.01 1501 1451M1501 1449C1492.16 1449 1485 1456.16 1485 1465 1485 1473.84 1492.16 1481 1501 1481 1509.84 1481 1517 1473.84 1517 1465 1517 1456.16 1509.84 1449 1501 1449Z"/><path d="M1533 1517 1531 1517 1531 1501.5C1530.95 1499.38 1529.95 1497.39 1528.28 1496.08 1523.89 1492.72 1518.87 1490.27 1513.51 1488.9 1509.46 1487.65 1505.24 1487.01 1501 1487 1496.76 1487.07 1492.55 1487.71 1488.48 1488.9 1483.18 1490.45 1478.18 1492.89 1473.69 1496.1 1472.03 1497.41 1471.04 1499.39 1471 1501.5L1471 1517 1469 1517 1469 1501.5C1469.05 1498.77 1470.33 1496.2 1472.48 1494.52 1477.17 1491.15 1482.39 1488.6 1487.94 1486.98 1492.18 1485.74 1496.58 1485.07 1501 1485 1505.43 1485.01 1509.84 1485.68 1514.07 1486.98 1519.68 1488.42 1524.94 1490.99 1529.53 1494.53 1531.68 1496.21 1532.95 1498.77 1533 1501.5Z"/></g></svg>