<svg width="96" height="96" xmlns="http://www.w3.org/2000/svg" xmlns:xlink="http://www.w3.org/1999/xlink" xml:space="preserve" overflow="hidden"><g transform="translate(-1086 -1670)"><path d="M1166 1690C1166 1686.13 1162.87 1683 1159.01 1682.99 1155.14 1682.99 1152 1686.12 1152 1689.99 1152 1692.36 1153.19 1694.57 1155.18 1695.86L1150 1711 1150 1711C1148.57 1711 1147.17 1711.43 1146 1712.25L1135.56 1704.42C1136.9 1700.79 1135.04 1696.77 1131.42 1695.43 1127.79 1694.09 1123.77 1695.94 1122.43 1699.57 1121.31 1702.6 1122.41 1706 1125.08 1707.8L1118.41 1729 1118 1729C1114.13 1728.99 1110.99 1732.12 1110.98 1735.98 1110.97 1739.85 1114.1 1742.99 1117.97 1743 1121.83 1743.01 1124.97 1739.88 1124.98 1736.02 1124.99 1733.8 1123.95 1731.71 1122.17 1730.39L1128.9 1709 1129 1709C1130.5 1709 1131.96 1708.51 1133.16 1707.62L1143.51 1715.37C1143.18 1716.21 1143 1717.1 1143 1718 1143 1721.87 1146.13 1725 1150 1725 1153.86 1725 1157 1721.87 1157 1718.01 1157 1715.65 1155.81 1713.44 1153.84 1712.15L1159 1697C1162.87 1697 1166 1693.87 1166 1690Z"/><path d="M1106 1683 1100 1683 1100 1753 1169 1753 1169 1747 1106 1747 1106 1683Z"/></g></svg>