<svg width="96" height="96" xmlns="http://www.w3.org/2000/svg" xmlns:xlink="http://www.w3.org/1999/xlink" xml:space="preserve" overflow="hidden"><g transform="translate(-1026 -444)"><path d="M1115 489 1040.2 489 1049.1 480.1C1050.3 478.9 1050.3 477 1049.1 475.9 1047.9 474.7 1046 474.7 1044.9 475.9L1030.9 489.9C1029.7 491.1 1029.7 493 1030.9 494.1L1044.9 508.1C1045.5 508.7 1046.3 509 1047 509 1047.7 509 1048.5 508.7 1049.1 508.1 1050.3 506.9 1050.3 505 1049.1 503.9L1040.2 495 1115 495C1116.7 495 1118 493.7 1118 492 1118 490.3 1116.7 489 1115 489Z"/></g></svg>