<svg width="96" height="96" xmlns="http://www.w3.org/2000/svg" xmlns:xlink="http://www.w3.org/1999/xlink" xml:space="preserve" overflow="hidden"><g transform="translate(-1392 -1072)"><path d="M1440 1116C1435 1116 1431 1112 1431 1107 1431 1102 1435 1098 1440 1098 1445 1098 1449 1102 1449 1107 1449 1112 1445 1116 1440 1116ZM1440 1086C1433.1 1086 1426.6 1089.4 1422.7 1095.2 1418.8 1100.9 1418 1108.2 1420.5 1114.7L1430 1135.7 1438.2 1152.9C1438.5 1153.6 1439.2 1154 1440 1154 1440.8 1154 1441.5 1153.6 1441.8 1152.9L1450 1135.7 1459.5 1114.7C1462 1108.2 1461.2 1100.9 1457.3 1095.2 1453.4 1089.4 1446.9 1086 1440 1086Z"/></g></svg>