<svg width="96" height="96" xmlns="http://www.w3.org/2000/svg" xmlns:xlink="http://www.w3.org/1999/xlink" xml:space="preserve" overflow="hidden"><g transform="translate(-737 -1651)"><path d="M745 1671 745 1727 825 1727 825 1671 745 1671ZM786.4 1705.9C785.6 1706.7 784.4 1706.7 783.6 1705.9L754 1677 816.1 1677 786.4 1705.9ZM770.5 1698.7 751 1718.3 751 1679.6 770.5 1698.7ZM773.4 1701.5 780.9 1708.8C782.1 1709.9 783.6 1710.5 785.1 1710.5 786.6 1710.5 788.1 1709.9 789.3 1708.8L796.8 1701.5 816.2 1721 753.9 1721 773.4 1701.5ZM799.5 1698.7 819 1679.7 819 1718.2 799.5 1698.7Z"/></g></svg>