<svg width="96" height="96" xmlns="http://www.w3.org/2000/svg" xmlns:xlink="http://www.w3.org/1999/xlink" xml:space="preserve" overflow="hidden"><g transform="translate(-2072 -1234)"><path d="M2123 1320 2123 1307.8C2134.3 1306.3 2143 1296.7 2143 1285L2143 1275 2137 1275 2137 1285C2137 1294.4 2129.4 1302 2120 1302 2110.6 1302 2103 1294.4 2103 1285L2103 1275 2097 1275 2097 1285C2097 1296.7 2105.7 1306.3 2117 1307.8L2117 1320 2096 1320 2096 1326 2144 1326 2144 1320 2123 1320Z"/><path d="M2120 1298C2127.2 1298 2133 1292.2 2133 1285L2123 1285 2123 1281 2133 1281 2133 1275 2123 1275 2123 1271 2133 1271 2133 1265 2123 1265 2123 1261 2133 1261 2133 1255 2123 1255 2123 1251 2133 1251C2133 1243.8 2127.2 1238 2120 1238 2112.8 1238 2107 1243.8 2107 1251L2107 1285C2107 1292.2 2112.8 1298 2120 1298Z"/></g></svg>