<svg width="96" height="96" xmlns="http://www.w3.org/2000/svg" xmlns:xlink="http://www.w3.org/1999/xlink" xml:space="preserve" overflow="hidden"><g transform="translate(-1501 -1192)"><path d="M1540.2 1221.2C1541 1220.4 1541.5 1219.3 1541.5 1218.1 1541.5 1216.9 1541 1215.8 1540.2 1215L1526.4 1201.3C1525.6 1200.5 1524.5 1200 1523.4 1200 1522.3 1200 1521.1 1200.5 1520.3 1201.3L1518.8 1202.8 1538.7 1222.7 1540.2 1221.2Z"/><path d="M1560.3 1256.5C1559.9 1256.9 1559.3 1257.1 1558.8 1257.1 1558.3 1257.1 1557.7 1256.9 1557.3 1256.5L1532.5 1231.8C1532.1 1231.4 1531.9 1230.8 1531.9 1230.3 1531.9 1229.8 1532.1 1229.2 1532.5 1228.8L1535.6 1225.8 1515.7 1205.9C1514.4 1207.2 1513.2 1208.4 1512.4 1209.2 1510.4 1211.1 1509.2 1213.6 1509.1 1216.3 1508.8 1220.8 1509.9 1225.1 1511.4 1229.3 1513 1233 1515.1 1236.5 1517.4 1239.8 1525.6 1252.1 1535.9 1262.8 1547.9 1271.3 1549.9 1272.8 1552 1274.1 1554.2 1275.3 1559.2 1277.8 1564.5 1279.6 1570.2 1280 1574 1280.3 1577.8 1278.8 1580.4 1276L1583.1 1273.3 1563.3 1253.4 1560.3 1256.5Z"/><path d="M1587.7 1262.6 1573.9 1248.8C1573.1 1248 1572 1247.5 1570.8 1247.5 1569.6 1247.5 1568.5 1248 1567.7 1248.8L1566.2 1250.4 1586.1 1270.3 1587.6 1268.8C1588.4 1268 1588.9 1266.9 1588.9 1265.7 1588.9 1264.5 1588.5 1263.4 1587.7 1262.6Z"/></g></svg>