<svg width="96" height="96" xmlns="http://www.w3.org/2000/svg" xmlns:xlink="http://www.w3.org/1999/xlink" xml:space="preserve" overflow="hidden"><g transform="translate(-1244 -1406)"><path d="M1322 1471.6 1308.31 1449.78C1308.06 1449.38 1307.63 1449.14 1307.16 1449.14 1306.69 1449.14 1306.25 1449.38 1306 1449.78L1302 1456.2 1310.58 1470.08C1311.31 1471.18 1311.46 1472.56 1311 1473.79L1320.7 1473.79C1321.49 1473.83 1322.17 1473.22 1322.21 1472.42 1322.22 1472.13 1322.15 1471.85 1322 1471.6Z"/><path d="M1307.1 1471.73 1285.35 1436.34C1285.07 1435.98 1284.64 1435.77 1284.18 1435.79L1284 1435.79 1283.82 1435.79C1283.36 1435.77 1282.93 1435.98 1282.65 1436.34L1260.9 1471.73C1260.59 1472.16 1260.55 1472.73 1260.79 1473.2 1261.03 1473.63 1261.51 1473.86 1262 1473.79L1306 1473.79C1306.49 1473.86 1306.97 1473.63 1307.21 1473.2 1307.45 1472.73 1307.41 1472.16 1307.1 1471.73ZM1287.64 1452.92 1284.18 1456 1280.72 1452.92 1275 1456.38 1284 1441.79 1292.76 1456Z"/><path d="M1274 1438C1274 1439.66 1272.66 1441 1271 1441 1269.34 1441 1268 1439.66 1268 1438 1268 1436.34 1269.34 1435 1271 1435 1272.66 1435 1274 1436.34 1274 1438Z"/><path d="M1258 1480 1258 1430 1326 1430 1326 1480ZM1332 1486 1332 1424 1252 1424 1252 1486Z"/></g></svg>