<svg width="96" height="96" xmlns="http://www.w3.org/2000/svg" xmlns:xlink="http://www.w3.org/1999/xlink" xml:space="preserve" overflow="hidden"><g transform="translate(-1392 -912)"><path d="M1439.98 922C1419 921.999 1402 939.003 1402 959.979 1402 980.955 1419 997.959 1439.98 997.96 1460.95 997.961 1477.96 980.957 1477.96 959.981 1477.96 959.98 1477.96 959.978 1477.96 959.977 1477.97 939.011 1460.98 922.008 1440.01 922 1440 922 1439.99 922 1439.98 922ZM1443.91 980.476C1443.49 981.465 1442.7 982.253 1441.71 982.676 1441.2 982.892 1440.65 983.003 1440.1 983 1439 983.002 1437.94 982.566 1437.16 981.787 1436.78 981.409 1436.48 980.963 1436.27 980.472 1436.05 979.963 1435.94 979.415 1435.94 978.861 1435.94 977.757 1436.38 976.697 1437.16 975.915 1438.77 974.294 1441.4 974.29 1443.02 975.907 1443.02 975.91 1443.02 975.912 1443.03 975.915L1443.03 975.915C1443.41 976.296 1443.71 976.746 1443.92 977.242 1444.13 977.754 1444.24 978.305 1444.24 978.861 1444.24 979.416 1444.13 979.965 1443.91 980.474ZM1447.44 962.916C1444.71 964.563 1443.02 967.505 1442.98 970.694L1436.98 970.694C1437.01 965.44 1439.76 960.578 1444.24 957.837 1448 955.482 1449.14 950.526 1446.78 946.768 1444.43 943.011 1439.47 941.874 1435.71 944.23 1433.37 945.699 1431.95 948.271 1431.95 951.037L1425.95 951.037C1425.95 943.288 1432.23 937.005 1439.97 937.002 1447.72 936.999 1454.01 943.278 1454.01 951.026 1454.01 955.856 1451.53 960.346 1447.44 962.914Z"/></g></svg>