<svg width="96" height="96" xmlns="http://www.w3.org/2000/svg" xmlns:xlink="http://www.w3.org/1999/xlink" xml:space="preserve" overflow="hidden"><g transform="translate(-1392 -912)"><path d="M1445.05 991 1439.05 991C1439.07 973.502 1453.25 959.322 1470.75 959.3L1470.75 965.3C1456.56 965.317 1445.07 976.813 1445.05 991Z"/><path d="M1429.4 991 1423.4 991C1423.45 964.876 1444.63 943.718 1470.75 943.69L1470.75 949.69C1447.94 949.718 1429.45 968.19 1429.4 991Z"/><path d="M1413.75 991 1407.75 991C1407.79 956.222 1435.97 928.039 1470.75 928L1470.75 934C1439.28 934.033 1413.78 959.534 1413.75 991Z"/><path d="M1470.75 983.21C1470.75 987.534 1467.24 991.04 1462.92 991.04 1458.6 991.04 1455.09 987.534 1455.09 983.21 1455.09 978.886 1458.6 975.38 1462.92 975.38 1467.24 975.38 1470.75 978.886 1470.75 983.21Z"/></g></svg>